<svg width="161" height="161" viewBox="0 0 161 161" fill="none" xmlns="http://www.w3.org/2000/svg">
<circle cx="80.5" cy="80.5" r="80.5" fill="white"/>
<path d="M75.375 83.7344C75.375 95.7031 73.4062 104.562 69.4688 110.312C65.5625 116.062 59.5312 118.938 51.375 118.938C43.4688 118.938 37.5 115.969 33.4688 110.031C29.4688 104.094 27.4688 95.3281 27.4688 83.7344C27.4688 71.6406 29.4219 62.7344 33.3281 57.0156C37.2344 51.2656 43.25 48.3906 51.375 48.3906C59.2812 48.3906 65.25 51.3906 69.2812 57.3906C73.3438 63.3906 75.375 72.1719 75.375 83.7344ZM41.8594 83.7344C41.8594 92.1406 42.5781 98.1719 44.0156 101.828C45.4844 105.453 47.9375 107.266 51.375 107.266C54.75 107.266 57.1875 105.422 58.6875 101.734C60.1875 98.0469 60.9375 92.0469 60.9375 83.7344C60.9375 75.3281 60.1719 69.2969 58.6406 65.6406C57.1406 61.9531 54.7188 60.1094 51.375 60.1094C47.9688 60.1094 45.5312 61.9531 44.0625 65.6406C42.5938 69.2969 41.8594 75.3281 41.8594 83.7344ZM120.42 118H105.936V78.3438L106.076 71.8281L106.311 64.7031C103.904 67.1094 102.232 68.6875 101.295 69.4375L93.42 75.7656L86.4356 67.0469L108.514 49.4688H120.42V118Z" fill="#121C61"/>
</svg>
