<svg width="161" height="162" viewBox="0 0 161 162" fill="none" xmlns="http://www.w3.org/2000/svg">
<circle cx="80.5" cy="80.8691" r="80.5" fill="#FBF9FA"/>
<path d="M76.375 79.7556C76.375 91.7244 74.4062 100.584 70.4688 106.334C66.5625 112.084 60.5312 114.959 52.375 114.959C44.4688 114.959 38.5 111.99 34.4688 106.052C30.4688 100.115 28.4688 91.3494 28.4688 79.7556C28.4688 67.6619 30.4219 58.7556 34.3281 53.0369C38.2344 47.2869 44.25 44.4119 52.375 44.4119C60.2812 44.4119 66.25 47.4119 70.2812 53.4119C74.3438 59.4119 76.375 68.1931 76.375 79.7556ZM42.8594 79.7556C42.8594 88.1619 43.5781 94.1931 45.0156 97.8494C46.4844 101.474 48.9375 103.287 52.375 103.287C55.75 103.287 58.1875 101.443 59.6875 97.7556C61.1875 94.0681 61.9375 88.0681 61.9375 79.7556C61.9375 71.3494 61.1719 65.3181 59.6406 61.6619C58.1406 57.9744 55.7188 56.1306 52.375 56.1306C48.9688 56.1306 46.5312 57.9744 45.0625 61.6619C43.5938 65.3181 42.8594 71.3494 42.8594 79.7556ZM133.514 114.021H85.6075V103.943L102.811 86.5525C107.904 81.3337 111.232 77.7244 112.795 75.7244C114.357 73.6931 115.482 71.8181 116.17 70.0994C116.857 68.3806 117.201 66.5994 117.201 64.7556C117.201 62.0056 116.436 59.9587 114.904 58.615C113.404 57.2712 111.389 56.5994 108.857 56.5994C106.201 56.5994 103.623 57.2087 101.123 58.4275C98.6231 59.6462 96.0137 61.3806 93.295 63.6306L85.42 54.3025C88.795 51.4275 91.5919 49.3962 93.8106 48.2087C96.0294 47.0212 98.4512 46.115 101.076 45.49C103.701 44.8337 106.639 44.5056 109.889 44.5056C114.17 44.5056 117.951 45.2869 121.232 46.8494C124.514 48.4119 127.061 50.5994 128.873 53.4119C130.686 56.2244 131.592 59.4431 131.592 63.0681C131.592 66.2244 131.029 69.1931 129.904 71.9744C128.811 74.7244 127.092 77.5525 124.748 80.4587C122.436 83.365 118.342 87.5056 112.467 92.8806L103.654 101.177V101.834H133.514V114.021Z" fill="#121C61"/>
</svg>
