<svg width="161" height="161" viewBox="0 0 161 161" fill="none" xmlns="http://www.w3.org/2000/svg">
<circle cx="80.5" cy="80.5" r="80.5" fill="white"/>
<path d="M76.375 83.7344C76.375 95.7031 74.4062 104.562 70.4688 110.312C66.5625 116.062 60.5312 118.938 52.375 118.938C44.4688 118.938 38.5 115.969 34.4688 110.031C30.4688 104.094 28.4688 95.3281 28.4688 83.7344C28.4688 71.6406 30.4219 62.7344 34.3281 57.0156C38.2344 51.2656 44.25 48.3906 52.375 48.3906C60.2812 48.3906 66.25 51.3906 70.2812 57.3906C74.3438 63.3906 76.375 72.1719 76.375 83.7344ZM42.8594 83.7344C42.8594 92.1406 43.5781 98.1719 45.0156 101.828C46.4844 105.453 48.9375 107.266 52.375 107.266C55.75 107.266 58.1875 105.422 59.6875 101.734C61.1875 98.0469 61.9375 92.0469 61.9375 83.7344C61.9375 75.3281 61.1719 69.2969 59.6406 65.6406C58.1406 61.9531 55.7188 60.1094 52.375 60.1094C48.9688 60.1094 46.5312 61.9531 45.0625 65.6406C43.5938 69.2969 42.8594 75.3281 42.8594 83.7344ZM130.842 64.7969C130.842 69.0781 129.545 72.7188 126.951 75.7188C124.357 78.7188 120.717 80.7812 116.029 81.9062V82.1875C121.561 82.875 125.748 84.5625 128.592 87.25C131.436 89.9062 132.857 93.5 132.857 98.0312C132.857 104.625 130.467 109.766 125.686 113.453C120.904 117.109 114.076 118.938 105.201 118.938C97.7637 118.938 91.17 117.703 85.42 115.234V102.906C88.0762 104.25 90.9981 105.344 94.1856 106.188C97.3731 107.031 100.529 107.453 103.654 107.453C108.436 107.453 111.967 106.641 114.248 105.016C116.529 103.391 117.67 100.781 117.67 97.1875C117.67 93.9688 116.357 91.6875 113.732 90.3438C111.107 89 106.92 88.3281 101.17 88.3281H95.9669V77.2188H101.264C106.576 77.2188 110.451 76.5312 112.889 75.1562C115.357 73.75 116.592 71.3594 116.592 67.9844C116.592 62.7969 113.342 60.2031 106.842 60.2031C104.592 60.2031 102.295 60.5781 99.9512 61.3281C97.6387 62.0781 95.0606 63.375 92.2169 65.2188L85.5137 55.2344C91.7637 50.7344 99.2169 48.4844 107.873 48.4844C114.967 48.4844 120.561 49.9219 124.654 52.7969C128.779 55.6719 130.842 59.6719 130.842 64.7969Z" fill="#121C61"/>
</svg>
