<svg width="47" height="47" viewBox="0 0 47 47" fill="none" xmlns="http://www.w3.org/2000/svg">
<circle cx="23.1111" cy="23.1111" r="23.1111" fill="white"/>
<path d="M22.125 24.5781C22.125 28.5677 21.4688 31.5208 20.1562 33.4375C18.8542 35.3542 16.8438 36.3125 14.125 36.3125C11.4896 36.3125 9.5 35.3229 8.15625 33.3438C6.82292 31.3646 6.15625 28.4427 6.15625 24.5781C6.15625 20.5469 6.80729 17.5781 8.10938 15.6719C9.41146 13.7552 11.4167 12.7969 14.125 12.7969C16.7604 12.7969 18.75 13.7969 20.0938 15.7969C21.4479 17.7969 22.125 20.724 22.125 24.5781ZM10.9531 24.5781C10.9531 27.3802 11.1927 29.3906 11.6719 30.6094C12.1615 31.8177 12.9792 32.4219 14.125 32.4219C15.25 32.4219 16.0625 31.8073 16.5625 30.5781C17.0625 29.349 17.3125 27.349 17.3125 24.5781C17.3125 21.776 17.0573 19.7656 16.5469 18.5469C16.0469 17.3177 15.2396 16.7031 14.125 16.7031C12.9896 16.7031 12.1771 17.3177 11.6875 18.5469C11.1979 19.7656 10.9531 21.776 10.9531 24.5781ZM37.14 36H32.3119V22.7812L32.3587 20.6094L32.4369 18.2344C31.6348 19.0365 31.0775 19.5625 30.765 19.8125L28.14 21.9219L25.8119 19.0156L33.1712 13.1562H37.14V36Z" fill="#121C61"/>
</svg>
