<svg width="47" height="47" viewBox="0 0 47 47" fill="none" xmlns="http://www.w3.org/2000/svg">
<circle cx="23.1111" cy="23.1111" r="23.1111" fill="white"/>
<path d="M21.125 24.5781C21.125 28.5677 20.4688 31.5208 19.1562 33.4375C17.8542 35.3542 15.8438 36.3125 13.125 36.3125C10.4896 36.3125 8.5 35.3229 7.15625 33.3438C5.82292 31.3646 5.15625 28.4427 5.15625 24.5781C5.15625 20.5469 5.80729 17.5781 7.10938 15.6719C8.41146 13.7552 10.4167 12.7969 13.125 12.7969C15.7604 12.7969 17.75 13.7969 19.0938 15.7969C20.4479 17.7969 21.125 20.724 21.125 24.5781ZM9.95312 24.5781C9.95312 27.3802 10.1927 29.3906 10.6719 30.6094C11.1615 31.8177 11.9792 32.4219 13.125 32.4219C14.25 32.4219 15.0625 31.8073 15.5625 30.5781C16.0625 29.349 16.3125 27.349 16.3125 24.5781C16.3125 21.776 16.0573 19.7656 15.5469 18.5469C15.0469 17.3177 14.2396 16.7031 13.125 16.7031C11.9896 16.7031 11.1771 17.3177 10.6875 18.5469C10.1979 19.7656 9.95312 21.776 9.95312 24.5781ZM40.1712 36H24.2025V32.6406L29.9369 26.8438C31.6348 25.1042 32.7442 23.901 33.265 23.2344C33.7858 22.5573 34.1608 21.9323 34.39 21.3594C34.6192 20.7865 34.7337 20.1927 34.7337 19.5781C34.7337 18.6615 34.4785 17.9792 33.9681 17.5312C33.4681 17.0833 32.7962 16.8594 31.9525 16.8594C31.0671 16.8594 30.2077 17.0625 29.3744 17.4688C28.541 17.875 27.6712 18.4531 26.765 19.2031L24.14 16.0938C25.265 15.1354 26.1973 14.4583 26.9369 14.0625C27.6765 13.6667 28.4837 13.3646 29.3587 13.1562C30.2337 12.9375 31.2129 12.8281 32.2962 12.8281C33.7233 12.8281 34.9837 13.0885 36.0775 13.6094C37.1712 14.1302 38.0202 14.8594 38.6244 15.7969C39.2285 16.7344 39.5306 17.8073 39.5306 19.0156C39.5306 20.0677 39.3431 21.0573 38.9681 21.9844C38.6035 22.901 38.0306 23.8438 37.2494 24.8125C36.4785 25.7812 35.114 27.1615 33.1556 28.9531L30.2181 31.7188V31.9375H40.1712V36Z" fill="#121C61"/>
</svg>
