<svg width="47" height="47" viewBox="0 0 47 47" fill="none" xmlns="http://www.w3.org/2000/svg">
<circle cx="23.11" cy="23.11" r="23.11" fill="white"/>
<path d="M21.125 23.5781C21.125 27.5677 20.4688 30.5208 19.1562 32.4375C17.8542 34.3542 15.8438 35.3125 13.125 35.3125C10.4896 35.3125 8.5 34.3229 7.15625 32.3438C5.82292 30.3646 5.15625 27.4427 5.15625 23.5781C5.15625 19.5469 5.80729 16.5781 7.10938 14.6719C8.41146 12.7552 10.4167 11.7969 13.125 11.7969C15.7604 11.7969 17.75 12.7969 19.0938 14.7969C20.4479 16.7969 21.125 19.724 21.125 23.5781ZM9.95312 23.5781C9.95312 26.3802 10.1927 28.3906 10.6719 29.6094C11.1615 30.8177 11.9792 31.4219 13.125 31.4219C14.25 31.4219 15.0625 30.8073 15.5625 29.5781C16.0625 28.349 16.3125 26.349 16.3125 23.5781C16.3125 20.776 16.0573 18.7656 15.5469 17.5469C15.0469 16.3177 14.2396 15.7031 13.125 15.7031C11.9896 15.7031 11.1771 16.3177 10.6875 17.5469C10.1979 18.7656 9.95312 20.776 9.95312 23.5781ZM39.2806 17.2656C39.2806 18.6927 38.8483 19.9062 37.9837 20.9062C37.1192 21.9062 35.9056 22.5938 34.3431 22.9688V23.0625C36.1869 23.2917 37.5827 23.8542 38.5306 24.75C39.4785 25.6354 39.9525 26.8333 39.9525 28.3438C39.9525 30.5417 39.1556 32.2552 37.5619 33.4844C35.9681 34.7031 33.6921 35.3125 30.7337 35.3125C28.2546 35.3125 26.0567 34.901 24.14 34.0781V29.9688C25.0254 30.4167 25.9994 30.7812 27.0619 31.0625C28.1244 31.3438 29.1765 31.4844 30.2181 31.4844C31.8119 31.4844 32.989 31.2135 33.7494 30.6719C34.5098 30.1302 34.89 29.2604 34.89 28.0625C34.89 26.9896 34.4525 26.2292 33.5775 25.7812C32.7025 25.3333 31.3067 25.1094 29.39 25.1094H27.6556V21.4062H29.4212C31.1921 21.4062 32.4837 21.1771 33.2962 20.7188C34.1192 20.25 34.5306 19.4531 34.5306 18.3281C34.5306 16.599 33.4473 15.7344 31.2806 15.7344C30.5306 15.7344 29.765 15.8594 28.9837 16.1094C28.2129 16.3594 27.3535 16.7917 26.4056 17.4062L24.1712 14.0781C26.2546 12.5781 28.739 11.8281 31.6244 11.8281C33.989 11.8281 35.8535 12.3073 37.2181 13.2656C38.5931 14.224 39.2806 15.5573 39.2806 17.2656Z" fill="#121C61"/>
</svg>
