<svg width="80" height="80" viewBox="0 0 80 80" fill="none" xmlns="http://www.w3.org/2000/svg">
<circle cx="40" cy="40" r="40" fill="white"/>
<path d="M37.6875 40.8672C37.6875 46.8516 36.7031 51.2812 34.7344 54.1562C32.7812 57.0312 29.7656 58.4688 25.6875 58.4688C21.7344 58.4688 18.75 56.9844 16.7344 54.0156C14.7344 51.0469 13.7344 46.6641 13.7344 40.8672C13.7344 34.8203 14.7109 30.3672 16.6641 27.5078C18.6172 24.6328 21.625 23.1953 25.6875 23.1953C29.6406 23.1953 32.625 24.6953 34.6406 27.6953C36.6719 30.6953 37.6875 35.0859 37.6875 40.8672ZM20.9297 40.8672C20.9297 45.0703 21.2891 48.0859 22.0078 49.9141C22.7422 51.7266 23.9688 52.6328 25.6875 52.6328C27.375 52.6328 28.5938 51.7109 29.3438 49.8672C30.0938 48.0234 30.4688 45.0234 30.4688 40.8672C30.4688 36.6641 30.0859 33.6484 29.3203 31.8203C28.5703 29.9766 27.3594 29.0547 25.6875 29.0547C23.9844 29.0547 22.7656 29.9766 22.0312 31.8203C21.2969 33.6484 20.9297 36.6641 20.9297 40.8672ZM60.21 58H52.9678V38.1719L53.0381 34.9141L53.1553 31.3516C51.9522 32.5547 51.1162 33.3438 50.6475 33.7188L46.71 36.8828L43.2178 32.5234L54.2569 23.7344H60.21V58Z" fill="#121C61"/>
</svg>
