<svg width="80" height="80" viewBox="0 0 80 80" fill="none" xmlns="http://www.w3.org/2000/svg">
<circle cx="40" cy="40" r="40" fill="white"/>
<path d="M36.6875 40.8672C36.6875 46.8516 35.7031 51.2812 33.7344 54.1562C31.7812 57.0312 28.7656 58.4688 24.6875 58.4688C20.7344 58.4688 17.75 56.9844 15.7344 54.0156C13.7344 51.0469 12.7344 46.6641 12.7344 40.8672C12.7344 34.8203 13.7109 30.3672 15.6641 27.5078C17.6172 24.6328 20.625 23.1953 24.6875 23.1953C28.6406 23.1953 31.625 24.6953 33.6406 27.6953C35.6719 30.6953 36.6875 35.0859 36.6875 40.8672ZM19.9297 40.8672C19.9297 45.0703 20.2891 48.0859 21.0078 49.9141C21.7422 51.7266 22.9688 52.6328 24.6875 52.6328C26.375 52.6328 27.5938 51.7109 28.3438 49.8672C29.0938 48.0234 29.4688 45.0234 29.4688 40.8672C29.4688 36.6641 29.0859 33.6484 28.3203 31.8203C27.5703 29.9766 26.3594 29.0547 24.6875 29.0547C22.9844 29.0547 21.7656 29.9766 21.0312 31.8203C20.2969 33.6484 19.9297 36.6641 19.9297 40.8672ZM65.2569 58H41.3037V52.9609L49.9053 44.2656C52.4522 41.6562 54.1162 39.8516 54.8975 38.8516C55.6787 37.8359 56.2412 36.8984 56.585 36.0391C56.9287 35.1797 57.1006 34.2891 57.1006 33.3672C57.1006 31.9922 56.7178 30.9688 55.9522 30.2969C55.2022 29.625 54.1944 29.2891 52.9287 29.2891C51.6006 29.2891 50.3116 29.5938 49.0616 30.2031C47.8116 30.8125 46.5069 31.6797 45.1475 32.8047L41.21 28.1406C42.8975 26.7031 44.2959 25.6875 45.4053 25.0938C46.5147 24.5 47.7256 24.0469 49.0381 23.7344C50.3506 23.4062 51.8194 23.2422 53.4444 23.2422C55.585 23.2422 57.4756 23.6328 59.1162 24.4141C60.7569 25.1953 62.0303 26.2891 62.9366 27.6953C63.8428 29.1016 64.2959 30.7109 64.2959 32.5234C64.2959 34.1016 64.0147 35.5859 63.4522 36.9766C62.9053 38.3516 62.0459 39.7656 60.8741 41.2188C59.7178 42.6719 57.6709 44.7422 54.7334 47.4297L50.3272 51.5781V51.9062H65.2569V58Z" fill="#121C61"/>
</svg>
