<svg width="80" height="80" viewBox="0 0 80 80" fill="none" xmlns="http://www.w3.org/2000/svg">
<circle cx="40" cy="40" r="40" fill="white"/>
<path d="M37.6875 39.8672C37.6875 45.8516 36.7031 50.2812 34.7344 53.1562C32.7812 56.0312 29.7656 57.4688 25.6875 57.4688C21.7344 57.4688 18.75 55.9844 16.7344 53.0156C14.7344 50.0469 13.7344 45.6641 13.7344 39.8672C13.7344 33.8203 14.7109 29.3672 16.6641 26.5078C18.6172 23.6328 21.625 22.1953 25.6875 22.1953C29.6406 22.1953 32.625 23.6953 34.6406 26.6953C36.6719 29.6953 37.6875 34.0859 37.6875 39.8672ZM20.9297 39.8672C20.9297 44.0703 21.2891 47.0859 22.0078 48.9141C22.7422 50.7266 23.9688 51.6328 25.6875 51.6328C27.375 51.6328 28.5938 50.7109 29.3438 48.8672C30.0938 47.0234 30.4688 44.0234 30.4688 39.8672C30.4688 35.6641 30.0859 32.6484 29.3203 30.8203C28.5703 28.9766 27.3594 28.0547 25.6875 28.0547C23.9844 28.0547 22.7656 28.9766 22.0312 30.8203C21.2969 32.6484 20.9297 35.6641 20.9297 39.8672ZM64.9209 30.3984C64.9209 32.5391 64.2725 34.3594 62.9756 35.8594C61.6787 37.3594 59.8584 38.3906 57.5147 38.9531V39.0938C60.2803 39.4375 62.3741 40.2812 63.7959 41.625C65.2178 42.9531 65.9287 44.75 65.9287 47.0156C65.9287 50.3125 64.7334 52.8828 62.3428 54.7266C59.9522 56.5547 56.5381 57.4688 52.1006 57.4688C48.3819 57.4688 45.085 56.8516 42.21 55.6172V49.4531C43.5381 50.125 44.9991 50.6719 46.5928 51.0938C48.1866 51.5156 49.7647 51.7266 51.3272 51.7266C53.7178 51.7266 55.4834 51.3203 56.6241 50.5078C57.7647 49.6953 58.335 48.3906 58.335 46.5938C58.335 44.9844 57.6787 43.8438 56.3662 43.1719C55.0537 42.5 52.96 42.1641 50.085 42.1641H47.4834V36.6094H50.1319C52.7881 36.6094 54.7256 36.2656 55.9444 35.5781C57.1787 34.875 57.7959 33.6797 57.7959 31.9922C57.7959 29.3984 56.1709 28.1016 52.9209 28.1016C51.7959 28.1016 50.6475 28.2891 49.4756 28.6641C48.3194 29.0391 47.0303 29.6875 45.6084 30.6094L42.2569 25.6172C45.3819 23.3672 49.1084 22.2422 53.4366 22.2422C56.9834 22.2422 59.7803 22.9609 61.8272 24.3984C63.8897 25.8359 64.9209 27.8359 64.9209 30.3984Z" fill="#121C61"/>
</svg>
