<svg width="17" height="17" viewBox="0 0 17 17" fill="none" xmlns="http://www.w3.org/2000/svg">
<path d="M2.12484 2.125H14.8748C15.0627 2.125 15.2429 2.19963 15.3757 2.33247C15.5085 2.4653 15.5832 2.64547 15.5832 2.83333V14.1667C15.5832 14.3545 15.5085 14.5347 15.3757 14.6675C15.2429 14.8004 15.0627 14.875 14.8748 14.875H2.12484C1.93698 14.875 1.75681 14.8004 1.62397 14.6675C1.49113 14.5347 1.4165 14.3545 1.4165 14.1667V2.83333C1.4165 2.64547 1.49113 2.4653 1.62397 2.33247C1.75681 2.19963 1.93698 2.125 2.12484 2.125V2.125ZM8.54234 8.27546L4.0005 4.41858L3.08321 5.49808L8.55155 10.1412L13.9214 5.49454L12.9949 4.42283L8.54305 8.27546H8.54234Z" fill="#121C61"/>
</svg>
