<svg width="17" height="17" viewBox="0 0 17 17" fill="none" xmlns="http://www.w3.org/2000/svg">
<g clip-path="url(#clip0)">
<path fill-rule="evenodd" clip-rule="evenodd" d="M0.40851 1.90905C0.00976562 2.67666 0.00976562 3.68514 0.00976562 5.70208V11.2979C0.00976562 13.3149 0.00976562 14.3233 0.40851 15.091C0.744527 15.7378 1.27195 16.2652 1.91881 16.6013C2.68643 17 3.6949 17 5.71185 17H11.3077C13.3246 17 14.3331 17 15.1007 16.6013C15.7476 16.2652 16.275 15.7378 16.611 15.091C17.0098 14.3233 17.0098 13.3149 17.0098 11.2979V5.70208C17.0098 3.68514 17.0098 2.67666 16.611 1.90905C16.275 1.26219 15.7476 0.734762 15.1007 0.398744C14.3331 0 13.3246 0 11.3077 0H5.71185C3.6949 0 2.68643 0 1.91881 0.398744C1.27195 0.734762 0.744527 1.26219 0.40851 1.90905ZM5.95147 2.35554C6.61084 2.32553 6.82153 2.31819 8.50036 2.31819H8.49843C10.1778 2.31819 10.3877 2.32553 11.0471 2.35554C11.7052 2.38567 12.1546 2.48986 12.5487 2.64273C12.9556 2.8005 13.2995 3.01171 13.6433 3.35557C13.9872 3.69918 14.1984 4.04407 14.3568 4.45066C14.5088 4.84372 14.6131 5.29293 14.644 5.95104C14.6736 6.61043 14.6813 6.82113 14.6813 8.50001C14.6813 10.1789 14.6736 10.3891 14.644 11.0485C14.6131 11.7063 14.5088 12.1557 14.3568 12.5488C14.1984 12.9553 13.9872 13.3002 13.6433 13.6438C13.2999 13.9877 12.9555 14.1994 12.5491 14.3573C12.1558 14.5101 11.7061 14.6143 11.048 14.6445C10.3886 14.6745 10.1785 14.6818 8.49959 14.6818C6.82089 14.6818 6.61033 14.6745 5.95095 14.6445C5.293 14.6143 4.84367 14.5101 4.45036 14.3573C4.04405 14.1994 3.69917 13.9877 3.3557 13.6438C3.01197 13.3002 2.80077 12.9553 2.64275 12.5487C2.49001 12.1556 2.38583 11.7064 2.35556 11.0483C2.32569 10.3889 2.31822 10.1789 2.31822 8.50001C2.31822 6.82113 2.32594 6.6103 2.35543 5.95091C2.38505 5.29306 2.48937 4.84372 2.64262 4.45053C2.80103 4.04407 3.01223 3.69918 3.35609 3.35557C3.69968 3.01184 4.04456 2.80063 4.45114 2.64273C4.84418 2.48986 5.29338 2.38567 5.95147 2.35554ZM8.29433 3.43214C8.16933 3.43209 8.05349 3.43203 7.94582 3.4322V3.43066C6.79372 3.43195 6.57272 3.43967 6.00247 3.46543C5.39976 3.49312 5.07252 3.59357 4.85462 3.67857C4.56614 3.79088 4.36009 3.92482 4.14373 4.14118C3.92737 4.35754 3.79318 4.5636 3.68114 4.85209C3.59653 5.07 3.49582 5.39712 3.46826 5.99985C3.43864 6.65151 3.43271 6.84624 3.43271 8.49704C3.43271 10.1478 3.43864 10.3436 3.46826 10.9953C3.49569 11.598 3.59653 11.9251 3.68114 12.1428C3.79344 12.4314 3.92737 12.6369 4.14373 12.8533C4.36009 13.0697 4.56614 13.2036 4.85462 13.3156C5.07265 13.4003 5.39976 13.501 6.00247 13.5288C6.65411 13.5584 6.84974 13.5648 8.50036 13.5648C10.1509 13.5648 10.3466 13.5584 10.9983 13.5288C11.601 13.5012 11.9283 13.4008 12.146 13.3158C12.4346 13.2037 12.64 13.0698 12.8564 12.8534C13.0727 12.6372 13.2069 12.4318 13.3189 12.1433C13.4036 11.9256 13.5043 11.5985 13.5318 10.9958C13.5614 10.3441 13.5679 10.1484 13.5679 8.49859C13.5679 6.84882 13.5614 6.65306 13.5318 6.00139C13.5044 5.39866 13.4036 5.07154 13.3189 4.85389C13.2066 4.56541 13.0727 4.35935 12.8564 4.14298C12.6401 3.92662 12.4345 3.79268 12.146 3.68063C11.9281 3.59602 11.601 3.49531 10.9983 3.46775C10.3465 3.43813 10.1509 3.4322 8.50036 3.4322C8.42902 3.4322 8.3604 3.43217 8.29433 3.43214ZM11.0583 5.2002C11.0583 4.79053 11.3905 4.45864 11.8001 4.45864V4.45838C12.2096 4.45838 12.5419 4.79066 12.5419 5.2002C12.5419 5.60975 12.2096 5.94202 11.8001 5.94202C11.3905 5.94202 11.0583 5.60975 11.0583 5.2002ZM5.32584 8.50001C5.32584 6.74686 6.74715 5.32545 8.50023 5.32538C10.2534 5.32538 11.6744 6.74682 11.6744 8.50001C11.6744 10.2532 10.2535 11.674 8.50036 11.674C6.74722 11.674 5.32584 10.2532 5.32584 8.50001ZM10.5609 8.50001C10.5609 7.36191 9.6383 6.4394 8.50036 6.4394C7.3623 6.4394 6.43982 7.36191 6.43982 8.50001C6.43982 9.63798 7.3623 10.5606 8.50036 10.5606C9.6383 10.5606 10.5609 9.63798 10.5609 8.50001Z" fill="url(#paint0_radial)"/>
<path fill-rule="evenodd" clip-rule="evenodd" d="M0.40851 1.90905C0.00976562 2.67666 0.00976562 3.68514 0.00976562 5.70208V11.2979C0.00976562 13.3149 0.00976562 14.3233 0.40851 15.091C0.744527 15.7378 1.27195 16.2652 1.91881 16.6013C2.68643 17 3.6949 17 5.71185 17H11.3077C13.3246 17 14.3331 17 15.1007 16.6013C15.7476 16.2652 16.275 15.7378 16.611 15.091C17.0098 14.3233 17.0098 13.3149 17.0098 11.2979V5.70208C17.0098 3.68514 17.0098 2.67666 16.611 1.90905C16.275 1.26219 15.7476 0.734762 15.1007 0.398744C14.3331 0 13.3246 0 11.3077 0H5.71185C3.6949 0 2.68643 0 1.91881 0.398744C1.27195 0.734762 0.744527 1.26219 0.40851 1.90905ZM5.95147 2.35554C6.61084 2.32553 6.82153 2.31819 8.50036 2.31819H8.49843C10.1778 2.31819 10.3877 2.32553 11.0471 2.35554C11.7052 2.38567 12.1546 2.48986 12.5487 2.64273C12.9556 2.8005 13.2995 3.01171 13.6433 3.35557C13.9872 3.69918 14.1984 4.04407 14.3568 4.45066C14.5088 4.84372 14.6131 5.29293 14.644 5.95104C14.6736 6.61043 14.6813 6.82113 14.6813 8.50001C14.6813 10.1789 14.6736 10.3891 14.644 11.0485C14.6131 11.7063 14.5088 12.1557 14.3568 12.5488C14.1984 12.9553 13.9872 13.3002 13.6433 13.6438C13.2999 13.9877 12.9555 14.1994 12.5491 14.3573C12.1558 14.5101 11.7061 14.6143 11.048 14.6445C10.3886 14.6745 10.1785 14.6818 8.49959 14.6818C6.82089 14.6818 6.61033 14.6745 5.95095 14.6445C5.293 14.6143 4.84367 14.5101 4.45036 14.3573C4.04405 14.1994 3.69917 13.9877 3.3557 13.6438C3.01197 13.3002 2.80077 12.9553 2.64275 12.5487C2.49001 12.1556 2.38583 11.7064 2.35556 11.0483C2.32569 10.3889 2.31822 10.1789 2.31822 8.50001C2.31822 6.82113 2.32594 6.6103 2.35543 5.95091C2.38505 5.29306 2.48937 4.84372 2.64262 4.45053C2.80103 4.04407 3.01223 3.69918 3.35609 3.35557C3.69968 3.01184 4.04456 2.80063 4.45114 2.64273C4.84418 2.48986 5.29338 2.38567 5.95147 2.35554ZM8.29433 3.43214C8.16933 3.43209 8.05349 3.43203 7.94582 3.4322V3.43066C6.79372 3.43195 6.57272 3.43967 6.00247 3.46543C5.39976 3.49312 5.07252 3.59357 4.85462 3.67857C4.56614 3.79088 4.36009 3.92482 4.14373 4.14118C3.92737 4.35754 3.79318 4.5636 3.68114 4.85209C3.59653 5.07 3.49582 5.39712 3.46826 5.99985C3.43864 6.65151 3.43271 6.84624 3.43271 8.49704C3.43271 10.1478 3.43864 10.3436 3.46826 10.9953C3.49569 11.598 3.59653 11.9251 3.68114 12.1428C3.79344 12.4314 3.92737 12.6369 4.14373 12.8533C4.36009 13.0697 4.56614 13.2036 4.85462 13.3156C5.07265 13.4003 5.39976 13.501 6.00247 13.5288C6.65411 13.5584 6.84974 13.5648 8.50036 13.5648C10.1509 13.5648 10.3466 13.5584 10.9983 13.5288C11.601 13.5012 11.9283 13.4008 12.146 13.3158C12.4346 13.2037 12.64 13.0698 12.8564 12.8534C13.0727 12.6372 13.2069 12.4318 13.3189 12.1433C13.4036 11.9256 13.5043 11.5985 13.5318 10.9958C13.5614 10.3441 13.5679 10.1484 13.5679 8.49859C13.5679 6.84882 13.5614 6.65306 13.5318 6.00139C13.5044 5.39866 13.4036 5.07154 13.3189 4.85389C13.2066 4.56541 13.0727 4.35935 12.8564 4.14298C12.6401 3.92662 12.4345 3.79268 12.146 3.68063C11.9281 3.59602 11.601 3.49531 10.9983 3.46775C10.3465 3.43813 10.1509 3.4322 8.50036 3.4322C8.42902 3.4322 8.3604 3.43217 8.29433 3.43214ZM11.0583 5.2002C11.0583 4.79053 11.3905 4.45864 11.8001 4.45864V4.45838C12.2096 4.45838 12.5419 4.79066 12.5419 5.2002C12.5419 5.60975 12.2096 5.94202 11.8001 5.94202C11.3905 5.94202 11.0583 5.60975 11.0583 5.2002ZM5.32584 8.50001C5.32584 6.74686 6.74715 5.32545 8.50023 5.32538C10.2534 5.32538 11.6744 6.74682 11.6744 8.50001C11.6744 10.2532 10.2535 11.674 8.50036 11.674C6.74722 11.674 5.32584 10.2532 5.32584 8.50001ZM10.5609 8.50001C10.5609 7.36191 9.6383 6.4394 8.50036 6.4394C7.3623 6.4394 6.43982 7.36191 6.43982 8.50001C6.43982 9.63798 7.3623 10.5606 8.50036 10.5606C9.6383 10.5606 10.5609 9.63798 10.5609 8.50001Z" fill="#121C61"/>
</g>
<defs>
<radialGradient id="paint0_radial" cx="0" cy="0" r="1" gradientUnits="userSpaceOnUse" gradientTransform="translate(4.52541 18.3094) rotate(-90) scale(16.8483 15.6702)">
<stop stop-color="#FFDD55"/>
<stop offset="0.1" stop-color="#FFDD55"/>
<stop offset="0.5" stop-color="#FF543E"/>
<stop offset="1" stop-color="#C837AB"/>
</radialGradient>
<clipPath id="clip0">
<rect width="17" height="17" fill="white"/>
</clipPath>
</defs>
</svg>
